<svg xmlns="http://www.w3.org/2000/svg" viewBox="0 0 128 128">
  <path d="M93.8 18.3c-6-2.7-12.7-3.9-19.7-3.7-5.8.2-11.2 1.3-15.8 3.1-2.5-.2-5-.3-7.4-.2C42.4 18 34.5 21 29 26.2c-3.2 3-5.7 6.7-7.3 10.9-1.2-.2-2.5-.3-3.7-.3-5.9.2-11 2.4-14.5 6.3C-.7 47.7-1 54.6 1.4 62.4c1.6 5.2 4.6 10.7 8.6 16.1.4.6.9 1.1 1.4 1.6 1 3.1 2.3 5.9 4 8.4 3.5 5.1 8.2 8.4 13.7 9.7 1.7.4 3.5.6 5.3.6.9 0 1.7-.1 2.6-.2 3.2 3.4 7 5.4 11.4 5.9.6.1 1.3.1 1.9.1 5.3 0 10.8-2.5 15.8-7.2 5.5 2.1 11.3 2.9 17 2.3 7.5-.8 14.3-4 19.5-9.2 5.2-5.2 8.6-12.2 9.4-19.8.1-.5.1-1 .1-1.5.8-.6 1.5-1.3 2.2-2.1 4.5-5.3 6.9-12 6.4-18.4-.5-6.8-4.1-12.7-10.4-17.3-2.5-1.8-5.5-3.4-8.9-4.7l-.5-.2c-1.2-3.3-3-6.4-5.3-9.1-.1-.1-.1-.2-.2-.2.1-.1.1-.1.2-.2C93.9 18.4 93.8 18.3 93.8 18.3z" fill="#336791"/>
  <path d="M105.2 56.8c-.3-4.8-3-8.9-7.8-12.3-2.1-1.5-4.6-2.8-7.3-3.8-.3-.1-.7-.3-1.1-.4-1.6-3.6-3.9-6.8-6.7-9.6-5.4-5.5-12.3-8.5-19.7-8.9-2.4-.1-4.9 0-7.3.3-.1 0-.2.1-.3.1-3.8-1.5-8.1-2.5-12.5-2.7-2.2-.1-4.3 0-6.4.3-6.2.9-11.7 3.5-15.6 7.5-2.6 2.6-4.5 5.7-5.7 9.1-.8-.1-1.6-.1-2.4-.1-4.9.2-9.1 2-12 5.2-3.1 3.4-4 7.8-2.7 12.8 1.5 5.9 5.3 12.3 10.3 17.6l.1.1c.8 2.7 1.9 5.2 3.3 7.4 2.8 4.1 6.5 6.7 10.8 7.7 1.3.3 2.6.4 3.9.4.7 0 1.5-.1 2.2-.2.1 0 .2 0 .3-.1 3.1 3.2 6.9 4.8 11 5.1h1.4c5.1 0 10.3-2.4 15-6.8 5.3 1.8 10.8 2.4 16.1 1.8 6.5-.7 12.5-3.5 17-8 4.5-4.5 7.4-10.5 8.2-17.1 0-.3 0-.7.1-1 .6-.5 1.3-1.1 1.9-1.7 3.8-4.4 5.7-9.8 5.3-14.7z" fill="#fff"/>
  <path d="M52.4 93.4c-3.5-.3-6.8-1.8-9.6-4.4l-.3.3c-1.3.2-2.6.3-3.9.2-1.8-.1-3.6-.5-5.2-1.1-4.5-1.8-8-5.3-9.4-9.7-.8-2.5-.9-5-.2-7.5-5.5-5.8-9.5-12.8-11.1-19.2-1.4-5.7-.1-10.5 3.7-13.4 2.9-2.2 6.6-3.2 10.6-2.9-.3-1.3-.5-2.6-.5-3.9 0-5.3 2.5-10 7.1-13.5 4-3 9.4-4.6 15.4-4.6 3.3 0 6.8.5 10.4 1.5 1.1-.4 2.3-.7 3.5-1 5.3-1.4 11-1.5 16.4-.2 6.1 1.5 11.5 4.8 15.5 9.5 1.3 1.5 2.4 3.2 3.4 5l.6.3c2.8 1.1 5.5 2.6 7.9 4.4 5 3.5 8.1 8.2 8.6 13.1.4 4.5-1.4 9.1-5.1 13-.5.5-1 1-1.5 1.5-.5 6.6-3.5 12.6-8.3 17.1-4.9 4.6-11.2 7.1-17.9 7-5.2-.1-10.3-1.5-15-4.1-4.7 4.9-10.1 7.6-15.1 7.6z" fill="#336791"/>
  <path d="M47.1 34.3c-1.1.8-1.7 2-1.7 3.6.1 2.6 1.8 5.3 3.2 7 .3.4.7.6 1.1.6h.2c.5-.1.9-.5 1-1-.2-2-.3-4.1.1-5.8.2-.8.6-1.8.3-2.8-.3-.8-1-1.3-1.7-1.6-.9-.3-1.7-.3-2.5 0z" fill="#fff"/>
  <path d="M79.4 35.1c-.8-.6-1.8-.7-2.8-.3-1.1.5-1.6 1.5-1.6 2.3.1 1.6 1.1 3.2 1.8 4.1.3.4.7.6 1.2.5.5 0 .9-.3 1.1-.8.6-1.5.9-3.1.8-4.5 0-.5-.2-1-.5-1.3z" fill="#fff"/>
</svg>
