<svg xmlns="http://www.w3.org/2000/svg" viewBox="0 0 128 128">
  <path fill="#A41E11" d="M121.8 93.1c-6.7 3.5-41.4 17.7-48.8 21.6-7.4 3.9-11.5 3.8-17.3 1S13 98.1 6.3 94.9c-3.4-1.6-5.1-2.9-5.1-4.2V77.5s48.1-10.5 55.8-13.2c7.7-2.8 10.4-2.9 17-.5s43.4 9 50 11.3v13.1c0 1.3-1.5 2.7-2.2 4.9z"/>
  <path fill="#D82C20" d="M121.8 80c-6.7 3.5-41.4 17.7-48.8 21.6-7.4 3.9-11.5 3.8-17.3 1S13 84.9 6.3 81.7C-.4 78.5-1.2 76.2 6.2 73.5c7.4-2.7 42.1-16.5 49.8-19.3 7.7-2.8 10.4-2.9 17-.5s38 14.5 44.6 16.8c6.7 2.4 10.9 6 4.2 9.5z"/>
  <path fill="#A41E11" d="M121.8 72.5c-6.7 3.5-41.4 17.7-48.8 21.6-7.4 3.9-11.5 3.8-17.3 1S13 77.5 6.3 74.3c-3.4-1.6-5.1-2.9-5.1-4.2V56.9s48.1-10.5 55.8-13.2c7.7-2.8 10.4-2.9 17-.5s43.4 9 50 11.3v13.1c0 1.3-1.5 2.7-2.2 4.9z"/>
  <path fill="#D82C20" d="M121.8 59.4c-6.7 3.5-41.4 17.7-48.8 21.6-7.4 3.9-11.5 3.8-17.3 1S13 64.3 6.3 61.1C-.4 57.9-1.2 55.6 6.2 52.9c7.4-2.7 42.1-16.5 49.8-19.3 7.7-2.8 10.4-2.9 17-.5s38 14.5 44.6 16.8c6.7 2.4 10.9 6 4.2 9.5z"/>
  <path fill="#A41E11" d="M121.8 51.8c-6.7 3.5-41.4 17.7-48.8 21.6-7.4 3.9-11.5 3.8-17.3 1S13 56.8 6.3 53.6c-3.4-1.6-5.1-2.9-5.1-4.2V36.2s48.1-10.5 55.8-13.2c7.7-2.8 10.4-2.9 17-.5s43.4 9 50 11.3v13.1c0 1.3-1.5 2.7-2.2 4.9z"/>
  <path fill="#D82C20" d="M121.8 38.7c-6.7 3.5-41.4 17.7-48.8 21.6-7.4 3.9-11.5 3.8-17.3 1S13 43.6 6.3 40.4C-.4 37.2-1.2 34.9 6.2 32.2 13.6 29.5 48.3 15.7 56 12.9c7.7-2.8 10.4-2.9 17-.5s38 14.5 44.6 16.8c6.7 2.4 10.9 6 4.2 9.5z"/>
  <path fill="#fff" d="M80.4 26.1l-10.8 1.2-2.5 5.8-3.7-4.7-12.3-.9 8.6-3.4-2.5-4.7 7.6 2.5 8.3-3-2.2 4.8zM68.7 48.3l-19.5-8.1 28.1-4.1z"/>
  <ellipse fill="#fff" cx="42.5" cy="31" rx="13.5" ry="5.3"/>
  <path fill="#7A0C00" d="M56 31l13.5-5.3-13.5 5.3z"/>
</svg>
